<svg width="18" height="18" viewBox="0 0 18 18" fill="none" xmlns="http://www.w3.org/2000/svg">
<path d="M13.1665 3.99984H17.3332V5.6665H15.6665V16.4998C15.6665 16.7209 15.5787 16.9328 15.4224 17.0891C15.2661 17.2454 15.0542 17.3332 14.8332 17.3332H3.1665C2.94549 17.3332 2.73353 17.2454 2.57725 17.0891C2.42097 16.9328 2.33317 16.7209 2.33317 16.4998V5.6665H0.666504V3.99984H4.83317V1.49984C4.83317 1.27882 4.92097 1.06686 5.07725 0.910582C5.23353 0.754301 5.44549 0.666504 5.6665 0.666504H12.3332C12.5542 0.666504 12.7661 0.754301 12.9224 0.910582C13.0787 1.06686 13.1665 1.27882 13.1665 1.49984V3.99984ZM13.9998 5.6665H3.99984V15.6665H13.9998V5.6665ZM6.49984 8.1665H8.1665V13.1665H6.49984V8.1665ZM9.83317 8.1665H11.4998V13.1665H9.83317V8.1665ZM6.49984 2.33317V3.99984H11.4998V2.33317H6.49984Z" fill="#0E0E0E"/>
</svg>
